<svg fill="none" height="24" viewBox="0 0 24 24" width="24" xmlns="http://www.w3.org/2000/svg"><g fill="#383838"><path d="m14.7842 14.7855c-.882-.3524-1.8266-.5355-2.7842-.5355s-1.9023.1831-2.78425.5355c.76599.604 1.73305.9645 2.78425.9645s2.0182-.3604 2.7842-.9645z"/><path clip-rule="evenodd" d="m3.75 12c0-4.55635 3.69365-8.25 8.25-8.25 4.5563 0 8.25 3.69365 8.25 8.25 0 2.1037-.7874 4.0234-2.0835 5.4807-.5902-.8527-1.3531-1.5768-2.2432-2.1232-.3643-.2236-.7455-.4146-1.1391-.572 1.045-.824 1.7158-2.1014 1.7158-3.5355 0-2.48528-2.0147-4.5-4.5-4.5-2.48528 0-4.5 2.01472-4.5 4.5 0 1.4341.67081 2.7114 1.71575 3.5355-.39373.1573-.77497.3484-1.13928.572-.89004.5463-1.65291 1.2704-2.24315 2.123-1.29602-1.4572-2.08332-3.3769-2.08332-5.4805zm3.19357 6.5193c-.40126-.3117-.77298-.6596-1.11025-1.0388-.19255.2782-.36672.57-.52095.8738-.14796.2914-.08739.6339.12621.8576-1.959-1.7833-3.18858-4.354-3.18858-7.2119 0-5.38478 4.36522-9.75 9.75-9.75 5.3848 0 9.75 4.36522 9.75 9.75 0 2.8589-1.2305 5.4304-3.1907 7.2138-.0246.0256-.0512.0496-.0797.0718-1.7225 1.533-3.9923 2.4644-6.4796 2.4644-2.48645 0-4.75552-.9307-6.4778-2.4628.03669.0283.07655.0536.1194.0753.36934.1875.82076.0401 1.00827-.3292.08963-.1766.1877-.3481.2937-.514zm5.05643-2.7693c1.108 0 2.1943.3063 3.1386.8859.7756.4761 1.4305 1.1209 1.9177 1.8835-1.3966 1.0848-3.151 1.7306-5.0563 1.7306s-3.65982-.6459-5.05643-1.7307c.48716-.7626 1.14202-1.4074 1.91758-1.8834.94432-.5796 2.03085-.8859 3.13885-.8859zm0 0c1.0512 0 2.0182-.3604 2.7842-.9645-.882-.3524-1.8266-.5355-2.7842-.5355 1.6569 0 3-1.3431 3-3 0-1.65685-1.3431-3-3-3s-3 1.34315-3 3c0 1.6569 1.3431 3 3 3-.9576 0-1.9023.1831-2.78425.5355.76599.604 1.73305.9645 2.78425.9645zm-6.56142 3.4619c.02773.0252.0556.0503.08362.0753-.03003-.0232-.05793-.0484-.08362-.0753z" fill-rule="evenodd"/><path d="m5.6416 19.3625c.36934.1875.82076.0401 1.00827-.3292.08963-.1766.1877-.3481.2937-.514-.40126-.3117-.77298-.6596-1.11025-1.0388-.19255.2782-.36672.57-.52095.8738-.14796.2914-.08739.6339.12621.8576.02773.0252.0556.0503.08362.0753.03669.0283.07655.0536.1194.0753z"/></g></svg>