<svg width="24" height="24" viewBox="0 0 24 24" fill="none" xmlns="http://www.w3.org/2000/svg">
<path fill-rule="evenodd" clip-rule="evenodd" d="M3 5.25C3 4.83579 3.33579 4.5 3.75 4.5H20.25C20.6642 4.5 21 4.83579 21 5.25C21 5.66421 20.6642 6 20.25 6H3.75C3.33579 6 3 5.66421 3 5.25Z" fill="#1E1E1E"/>
<path fill-rule="evenodd" clip-rule="evenodd" d="M9.75 9C10.1642 9 10.5 9.33579 10.5 9.75V15.75C10.5 16.1642 10.1642 16.5 9.75 16.5C9.33579 16.5 9 16.1642 9 15.75V9.75C9 9.33579 9.33579 9 9.75 9Z" fill="#1E1E1E"/>
<path fill-rule="evenodd" clip-rule="evenodd" d="M14.25 9C14.6642 9 15 9.33579 15 9.75V15.75C15 16.1642 14.6642 16.5 14.25 16.5C13.8358 16.5 13.5 16.1642 13.5 15.75V9.75C13.5 9.33579 13.8358 9 14.25 9Z" fill="#1E1E1E"/>
<path fill-rule="evenodd" clip-rule="evenodd" d="M5.25 4.5C5.66421 4.5 6 4.83579 6 5.25V19.5H18V5.25C18 4.83579 18.3358 4.5 18.75 4.5C19.1642 4.5 19.5 4.83579 19.5 5.25V19.5C19.5 19.8978 19.342 20.2794 19.0607 20.5607C18.7794 20.842 18.3978 21 18 21H6C5.60218 21 5.22065 20.842 4.93934 20.5607C4.65804 20.2794 4.5 19.8978 4.5 19.5V5.25C4.5 4.83579 4.83579 4.5 5.25 4.5Z" fill="#1E1E1E"/>
<path fill-rule="evenodd" clip-rule="evenodd" d="M8.15901 2.15901C8.58097 1.73705 9.15326 1.5 9.75 1.5H14.25C14.8467 1.5 15.419 1.73705 15.841 2.15901C16.2629 2.58097 16.5 3.15326 16.5 3.75V5.25C16.5 5.66421 16.1642 6 15.75 6C15.3358 6 15 5.66421 15 5.25V3.75C15 3.55109 14.921 3.36032 14.7803 3.21967C14.6397 3.07902 14.4489 3 14.25 3H9.75C9.55109 3 9.36032 3.07902 9.21967 3.21967C9.07902 3.36032 9 3.55109 9 3.75V5.25C9 5.66421 8.66421 6 8.25 6C7.83579 6 7.5 5.66421 7.5 5.25V3.75C7.5 3.15326 7.73705 2.58097 8.15901 2.15901Z" fill="#1E1E1E"/>
</svg>
