<svg width="24" height="24" viewBox="0 0 24 24" fill="none" xmlns="http://www.w3.org/2000/svg">
<path fill-rule="evenodd" clip-rule="evenodd" d="M12 3.75C7.44365 3.75 3.75 7.44365 3.75 12C3.75 16.5563 7.44365 20.25 12 20.25C16.5563 20.25 20.25 16.5563 20.25 12C20.25 7.44365 16.5563 3.75 12 3.75ZM2.25 12C2.25 6.61522 6.61522 2.25 12 2.25C17.3848 2.25 21.75 6.61522 21.75 12C21.75 17.3848 17.3848 21.75 12 21.75C6.61522 21.75 2.25 17.3848 2.25 12Z" fill="#1E1E1E"/>
<path d="M12 13.125C12.6213 13.125 13.125 12.6213 13.125 12C13.125 11.3787 12.6213 10.875 12 10.875C11.3787 10.875 10.875 11.3787 10.875 12C10.875 12.6213 11.3787 13.125 12 13.125Z" fill="#1E1E1E"/>
<path d="M12 8.625C12.6213 8.625 13.125 8.12132 13.125 7.5C13.125 6.87868 12.6213 6.375 12 6.375C11.3787 6.375 10.875 6.87868 10.875 7.5C10.875 8.12132 11.3787 8.625 12 8.625Z" fill="#1E1E1E"/>
<path d="M12 17.625C12.6213 17.625 13.125 17.1213 13.125 16.5C13.125 15.8787 12.6213 15.375 12 15.375C11.3787 15.375 10.875 15.8787 10.875 16.5C10.875 17.1213 11.3787 17.625 12 17.625Z" fill="#1E1E1E"/>
</svg>
