<svg width="24" height="24" viewBox="0 0 24 24" fill="none" xmlns="http://www.w3.org/2000/svg">
<path fill-rule="evenodd" clip-rule="evenodd" d="M7.56291 5.99951C7.71759 5.08433 8.15293 4.23265 8.81791 3.56767C9.66176 2.72382 10.8063 2.24976 11.9996 2.24976C13.193 2.24976 14.3375 2.72382 15.1814 3.56767C15.8463 4.23265 16.2817 5.08433 16.4364 5.99951H20.9194C21.1299 6.00082 21.3377 6.04638 21.5293 6.13324C21.721 6.2201 21.8922 6.34632 22.0319 6.50369C22.1716 6.66107 22.2766 6.84608 22.3401 7.04669C22.4035 7.24677 22.4241 7.45792 22.4007 7.66647L22.4006 7.66814L21.0685 19.6754C21.0232 20.0394 20.8469 20.3744 20.5726 20.6179C20.2982 20.8613 19.9446 20.9966 19.5778 20.9983L4.42201 20.9983C4.05522 20.9966 3.70162 20.8613 3.42728 20.6179C3.15295 20.3744 2.97667 20.0393 2.93139 19.6754L2.93016 19.6655L1.59928 7.66814C1.57578 7.45937 1.59628 7.247 1.6597 7.04669C1.72321 6.84608 1.82822 6.66107 1.96791 6.50369C2.1076 6.34632 2.27885 6.2201 2.47052 6.13324C2.66218 6.04638 2.86998 6.00082 3.08041 5.99953L3.08502 5.99951H7.56291ZM9.87849 4.62824C10.441 4.06568 11.204 3.74963 11.9996 3.74963C12.7952 3.74963 13.5582 4.06568 14.1208 4.62824C14.5029 5.01038 14.7713 5.48501 14.9042 5.99951H9.09511C9.22796 5.48501 9.49635 5.01038 9.87849 4.62824ZM19.577 19.4961C19.5753 19.4975 19.5733 19.4983 19.5711 19.4984H4.4287C4.42655 19.4983 4.42449 19.4975 4.42288 19.4961L4.41997 19.4912L3.08982 7.50107L3.08963 7.49939H20.9102L19.5799 19.4912L19.5787 19.4939L19.577 19.4961Z" fill="#1E1E1E"/>
</svg>
