<svg width="24" height="25" viewBox="0 0 24 25" fill="none" xmlns="http://www.w3.org/2000/svg">
<path d="M12 10.749C12.4142 10.749 12.75 11.0848 12.75 11.499V13.374H14.625C15.0392 13.374 15.375 13.7098 15.375 14.124C15.375 14.5382 15.0392 14.874 14.625 14.874H12.75V16.749C12.75 17.1632 12.4142 17.499 12 17.499C11.5858 17.499 11.25 17.1632 11.25 16.749V14.874H9.375C8.96079 14.874 8.625 14.5382 8.625 14.124C8.625 13.7098 8.96079 13.374 9.375 13.374H11.25V11.499C11.25 11.0848 11.5858 10.749 12 10.749Z" fill="#1E1E1E"/>
<path fill-rule="evenodd" clip-rule="evenodd" d="M8.81791 4.19267C8.15293 4.85765 7.71759 5.70933 7.56291 6.62451H3.08502L3.08041 6.62453C2.86998 6.62582 2.66218 6.67138 2.47052 6.75824C2.27885 6.8451 2.1076 6.97132 1.96791 7.12869C1.82822 7.28607 1.72321 7.47108 1.6597 7.67169C1.59628 7.872 1.57578 8.08437 1.59928 8.29314L2.93016 20.2905L2.93139 20.3004C2.97667 20.6643 3.15295 20.9994 3.42728 21.2429C3.70162 21.4863 4.05522 21.6216 4.42201 21.6233L19.5778 21.6233C19.9446 21.6216 20.2982 21.4863 20.5726 21.2429C20.8469 20.9994 21.0232 20.6644 21.0685 20.3004L22.4006 8.29314L22.4007 8.29147C22.4241 8.08292 22.4035 7.87177 22.3401 7.67169C22.2766 7.47108 22.1716 7.28607 22.0319 7.12869C21.8922 6.97132 21.721 6.8451 21.5293 6.75824C21.3377 6.67138 21.1299 6.62582 20.9194 6.62451H16.4364C16.2817 5.70933 15.8463 4.85765 15.1814 4.19267C14.3375 3.34882 13.193 2.87476 11.9996 2.87476C10.8063 2.87476 9.66176 3.34882 8.81791 4.19267ZM11.9996 4.37463C11.204 4.37463 10.441 4.69068 9.87849 5.25324C9.49635 5.63538 9.22796 6.11001 9.09511 6.62451H14.9042C14.7713 6.11001 14.5029 5.63538 14.1208 5.25324C13.5582 4.69068 12.7952 4.37463 11.9996 4.37463ZM19.5711 20.1234C19.5733 20.1233 19.5753 20.1225 19.577 20.1211L19.5781 20.1198L19.5787 20.1189L19.5799 20.1162L20.9102 8.12439H3.08963L3.08982 8.12607L4.41997 20.1162L4.42288 20.1211C4.42449 20.1225 4.42655 20.1233 4.4287 20.1234H19.5711Z" fill="#1E1E1E"/>
</svg>
