<svg width="25" height="24" viewBox="0 0 25 24" fill="none" xmlns="http://www.w3.org/2000/svg">
<path d="M12.3333 13.125C12.9547 13.125 13.4583 12.6213 13.4583 12C13.4583 11.3787 12.9547 10.875 12.3333 10.875C11.712 10.875 11.2083 11.3787 11.2083 12C11.2083 12.6213 11.712 13.125 12.3333 13.125Z" fill="#1E1E1E"/>
<path d="M12.3333 7.125C12.9547 7.125 13.4583 6.62132 13.4583 6C13.4583 5.37868 12.9547 4.875 12.3333 4.875C11.712 4.875 11.2083 5.37868 11.2083 6C11.2083 6.62132 11.712 7.125 12.3333 7.125Z" fill="#1E1E1E"/>
<path d="M12.3333 19.125C12.9547 19.125 13.4583 18.6213 13.4583 18C13.4583 17.3787 12.9547 16.875 12.3333 16.875C11.712 16.875 11.2083 17.3787 11.2083 18C11.2083 18.6213 11.712 19.125 12.3333 19.125Z" fill="#1E1E1E"/>
</svg>
