<?xml version="1.0" encoding="UTF-8"?> <svg xmlns="http://www.w3.org/2000/svg" width="64" height="64" viewBox="0 0 64 64" fill="none"><path d="M1.17073 21.5059C1.17073 20.8587 0.646553 20.334 -1.52588e-05 20.334V12C5.24445 12 9.49592 16.256 9.49592 21.5059L9.49593 42.4941C9.49593 43.1413 10.0201 43.666 10.6667 43.666C11.3132 43.666 11.8374 43.1413 11.8374 42.4941L11.8374 21.5059C11.8374 16.256 16.0889 12 21.3334 12C26.5778 12 30.8292 16.256 30.8292 21.5059L30.8292 42.4941C30.8292 43.1413 31.3535 43.666 32 43.666C32.6465 43.666 33.1708 43.1413 33.1708 42.4941L33.1707 21.5059C33.1707 16.256 37.4222 12 42.6666 12C47.9112 12 52.1626 16.256 52.1626 21.5059L52.1626 42.4941C52.1626 43.1413 52.6867 43.666 53.3334 43.666C53.9799 43.666 54.5042 43.1413 54.5042 42.4941L54.5042 21.5059C54.5042 16.256 58.7556 12 64 12V20.334C63.3535 20.334 62.8292 20.8587 62.8292 21.5059L62.8292 42.4941C62.8292 47.744 58.5778 52 53.3334 52C48.0888 52 43.8373 47.744 43.8373 42.4941L43.8373 21.5059C43.8373 20.8587 43.3133 20.334 42.6666 20.334C42.0201 20.334 41.4958 20.8587 41.4958 21.5059L41.4958 42.4941C41.4958 47.744 37.2444 52 32 52C26.7556 52 22.5042 47.744 22.5042 42.4941L22.5042 21.5059C22.5042 20.8587 21.9799 20.334 21.3334 20.334C20.6867 20.334 20.1626 20.8587 20.1626 21.5059L20.1626 42.4941C20.1626 47.744 15.9111 52 10.6667 52C5.42219 52 1.17074 47.744 1.17074 42.4941L1.17073 21.5059Z" fill="#12151E"></path></svg> 