<svg width="16" height="16" viewBox="0 0 16 16" fill="none" xmlns="http://www.w3.org/2000/svg">
<path fill-rule="evenodd" clip-rule="evenodd" d="M7.25 2.5C4.62665 2.5 2.5 4.62665 2.5 7.25C2.5 9.87335 4.62665 12 7.25 12C9.87335 12 12 9.87335 12 7.25C12 4.62665 9.87335 2.5 7.25 2.5ZM1.5 7.25C1.5 4.07436 4.07436 1.5 7.25 1.5C10.4256 1.5 13 4.07436 13 7.25C13 10.4256 10.4256 13 7.25 13C4.07436 13 1.5 10.4256 1.5 7.25Z" fill="#383838"/>
<path fill-rule="evenodd" clip-rule="evenodd" d="M10.6088 10.609C10.8041 10.4137 11.1207 10.4137 11.316 10.609L14.3535 13.6465C14.5487 13.8417 14.5487 14.1583 14.3535 14.3536C14.1582 14.5488 13.8416 14.5488 13.6463 14.3536L10.6088 11.3161C10.4136 11.1208 10.4136 10.8042 10.6088 10.609Z" fill="#383838"/>
</svg>
