<svg width="16" height="16" viewBox="0 0 16 16" fill="none" xmlns="http://www.w3.org/2000/svg">
<path fill-rule="evenodd" clip-rule="evenodd" d="M14 8C14 7.72386 13.7761 7.5 13.5 7.5H2.5C2.22386 7.5 2 7.72386 2 8C2 8.27614 2.22386 8.5 2.5 8.5H13.5C13.7761 8.5 14 8.27614 14 8Z" fill="#0B0B0B"></path>
<path fill-rule="evenodd" clip-rule="evenodd" d="M8.64645 3.14645C8.45119 3.34171 8.45119 3.65829 8.64645 3.85355L12.7929 8L8.64645 12.1464C8.45119 12.3417 8.45119 12.6583 8.64645 12.8536C8.84171 13.0488 9.15829 13.0488 9.35355 12.8536L13.8536 8.35355C14.0488 8.15829 14.0488 7.84171 13.8536 7.64645L9.35355 3.14645C9.15829 2.95118 8.84171 2.95118 8.64645 3.14645Z" fill="#0B0B0B"></path>
</svg>
